<svg xmlns="http://www.w3.org/2000/svg" width="44" height="34" viewBox="0 0 44 34" fill="none">
  <path fill-rule="evenodd" clip-rule="evenodd" d="M41.25 33.5C41.25 33.5 44 33.5 44 30.75C44 28 41.25 19.75 30.25 19.75C19.25 19.75 16.5 28 16.5 30.75C16.5 33.5 19.25 33.5 19.25 33.5H41.25ZM19.3105 30.75H41.1895C41.2024 30.7485 41.2152 30.7467 41.228 30.7445L41.25 30.739C41.2445 30.013 40.7907 27.9065 39.16 26.009C37.642 24.2298 34.9745 22.5 30.25 22.5C25.5282 22.5 22.8608 24.2325 21.34 26.009C19.7093 27.9065 19.2528 30.0158 19.25 30.739C19.2701 30.7429 19.2903 30.7465 19.3105 30.75V30.75ZM30.25 14.25C31.7087 14.25 33.1076 13.6705 34.1391 12.6391C35.1705 11.6076 35.75 10.2087 35.75 8.75C35.75 7.29131 35.1705 5.89236 34.1391 4.86091C33.1076 3.82946 31.7087 3.25 30.25 3.25C28.7913 3.25 27.3924 3.82946 26.3609 4.86091C25.3295 5.89236 24.75 7.29131 24.75 8.75C24.75 10.2087 25.3295 11.6076 26.3609 12.6391C27.3924 13.6705 28.7913 14.25 30.25 14.25ZM38.5 8.75C38.5 9.83341 38.2866 10.9062 37.872 11.9071C37.4574 12.9081 36.8497 13.8175 36.0836 14.5836C35.3175 15.3497 34.4081 15.9574 33.4071 16.372C32.4062 16.7866 31.3334 17 30.25 17C29.1666 17 28.0938 16.7866 27.0929 16.372C26.0919 15.9574 25.1825 15.3497 24.4164 14.5836C23.6503 13.8175 23.0426 12.9081 22.628 11.9071C22.2134 10.9062 22 9.83341 22 8.75C22 6.56196 22.8692 4.46354 24.4164 2.91637C25.9635 1.36919 28.062 0.5 30.25 0.5C32.438 0.5 34.5365 1.36919 36.0836 2.91637C37.6308 4.46354 38.5 6.56196 38.5 8.75V8.75ZM19.074 20.52C17.9739 20.1736 16.84 19.9459 15.6915 19.8407C15.0462 19.7794 14.3982 19.7491 13.75 19.75C2.75 19.75 0 28 0 30.75C0 32.5842 0.91575 33.5 2.75 33.5H14.344C13.9363 32.6415 13.733 31.7002 13.75 30.75C13.75 27.9725 14.7868 25.1345 16.7475 22.764C17.4158 21.9555 18.194 21.1992 19.074 20.52ZM13.53 22.5C8.943 22.555 6.33875 24.26 4.84 26.009C3.19825 27.9175 2.75 30.0322 2.75 30.75H11C11 27.8763 11.8883 25.0135 13.53 22.5ZM4.125 10.125C4.125 7.93696 4.99419 5.83854 6.54137 4.29137C8.08854 2.74419 10.187 1.875 12.375 1.875C14.563 1.875 16.6615 2.74419 18.2086 4.29137C19.7558 5.83854 20.625 7.93696 20.625 10.125C20.625 12.313 19.7558 14.4115 18.2086 15.9586C16.6615 17.5058 14.563 18.375 12.375 18.375C10.187 18.375 8.08854 17.5058 6.54137 15.9586C4.99419 14.4115 4.125 12.313 4.125 10.125V10.125ZM12.375 4.625C10.9163 4.625 9.51736 5.20446 8.48591 6.23591C7.45446 7.26736 6.875 8.66631 6.875 10.125C6.875 11.5837 7.45446 12.9826 8.48591 14.0141C9.51736 15.0455 10.9163 15.625 12.375 15.625C13.8337 15.625 15.2326 15.0455 16.2641 14.0141C17.2955 12.9826 17.875 11.5837 17.875 10.125C17.875 8.66631 17.2955 7.26736 16.2641 6.23591C15.2326 5.20446 13.8337 4.625 12.375 4.625Z" fill="#789A9F"/>
</svg>